<svg width="155" height="136" viewBox="0 0 155 136" fill="none" xmlns="http://www.w3.org/2000/svg">
<g style="mix-blend-mode:exclusion">
<path d="M52.6754 19.7442L78.8839 19.7443L15.6111 96.5394L0.175421 83.8217L52.6754 19.7442Z" fill="url(#paint0_linear_72_2)"/>
<rect y="19.882" width="20" height="96" fill="url(#paint1_linear_72_2)" style="mix-blend-mode:color-dodge"/>
<rect x="20.2" y="69.0086" width="20" height="46.9371" transform="rotate(-44.9367 20.2 69.0086)" fill="white"/>
<path d="M53.1778 101.941C59.9141 108.631 68.4828 113.172 77.8003 114.992C87.1178 116.812 96.7656 115.827 105.524 112.164C114.282 108.5 121.757 102.321 127.004 94.4095C132.25 86.4976 135.033 77.2075 135 67.7141L115.082 67.7837C115.101 73.3377 113.473 78.7727 110.404 83.4015C107.334 88.0303 102.961 91.6449 97.8371 93.7883C92.7133 95.9317 87.0689 96.5075 81.6179 95.443C76.1668 94.3785 71.1538 91.7215 67.2127 87.8079L53.1778 101.941Z" fill="white"/>
<path d="M104.235 51.3009C107.525 54.7226 109.727 59.0431 110.561 63.716C111.395 68.3888 110.825 73.2042 108.923 77.553C107.021 81.9019 103.871 85.589 99.8734 88.1481C95.8756 90.7071 91.2087 92.0232 86.4628 91.9299L86.6841 80.6761C89.2041 80.7256 91.6822 80.0268 93.8051 78.6679C95.928 77.3091 97.6002 75.3512 98.6104 73.042C99.6205 70.7327 99.9232 68.1758 99.4801 65.6945C99.0371 63.2132 97.8682 60.919 96.1213 59.1021L104.235 51.3009Z" fill="white"/>
<path d="M87.1237 60.062C88.7059 60.0742 90.2489 60.5554 91.5577 61.4446C92.8664 62.3338 93.8821 63.5911 94.4763 65.0576C95.0704 66.5241 95.2164 68.1338 94.8957 69.6832C94.575 71.2326 93.802 72.6521 92.6746 73.7622L90.0422 71.0887C90.6408 70.4992 91.0513 69.7455 91.2216 68.9227C91.3919 68.1 91.3143 67.2452 90.9988 66.4665C90.6833 65.6878 90.144 65.0202 89.4491 64.548C88.7541 64.0759 87.9348 63.8204 87.0946 63.8139L87.1237 60.062Z" fill="white"/>
</g>
<defs>
<linearGradient id="paint0_linear_72_2" x1="71.0784" y1="13.3132" x2="7.80557" y2="90.1083" gradientUnits="userSpaceOnUse">
<stop stop-color="white"/>
<stop offset="1" stop-color="white"/>
</linearGradient>
<linearGradient id="paint1_linear_72_2" x1="10" y1="19.882" x2="10" y2="115.882" gradientUnits="userSpaceOnUse">
<stop stop-color="white"/>
<stop offset="1" stop-color="white"/>
</linearGradient>
</defs>
</svg>
